<?xml version="1.0" standalone="no"?>
<!DOCTYPE svg PUBLIC "-//W3C//DTD SVG 20010904//EN"
 "http://www.w3.org/TR/2001/REC-SVG-20010904/DTD/svg10.dtd">
<svg version="1.0" xmlns="http://www.w3.org/2000/svg"
 width="500.000000pt" height="140.000000pt" viewBox="0 0 500.000000 140.000000"
 preserveAspectRatio="xMidYMid meet">

<g transform="translate(0.000000,140.000000) scale(0.100000,-0.100000)"
fill="#000000" stroke="none">
<path d="M840 1360 c-203 -6 -218 -10 -279 -72 -55 -56 -66 -84 -66 -178 0
-63 5 -95 19 -125 12 -26 140 -162 355 -378 185 -186 337 -344 339 -352 3 -13
-34 -15 -257 -15 l-261 0 0 120 0 120 -97 95 c-53 53 -98 93 -100 91 -2 -2 -7
-149 -10 -325 l-6 -322 329 6 c181 3 350 8 376 11 69 7 131 37 188 90 65 61
99 132 102 216 l3 65 -357 366 c-197 201 -358 368 -358 371 0 4 114 5 253 4
l252 -3 5 -182 5 -182 95 -100 c52 -56 98 -101 103 -101 4 0 6 177 5 393 l-3
392 -225 0 c-124 1 -308 -2 -410 -5z"/>
<path d="M1856 1057 c-64 -36 -92 -114 -66 -181 12 -32 57 -61 130 -83 92 -28
122 -70 79 -109 -32 -29 -115 -24 -174 11 l-46 26 3 -53 c3 -51 5 -54 42 -71
52 -25 131 -32 184 -18 81 22 136 105 117 178 -9 38 -64 86 -116 103 -64 20
-119 49 -120 63 -3 26 3 42 19 55 24 18 112 15 155 -7 l37 -19 0 49 c0 47 -2
49 -36 64 -56 23 -161 19 -208 -8z"/>
<path d="M2326 1060 c-51 -26 -73 -46 -101 -95 -37 -65 -51 -136 -36 -187 19
-68 37 -101 73 -135 127 -122 340 -84 410 74 58 132 7 284 -117 342 -60 28
-173 29 -229 1z m194 -92 c48 -32 68 -74 69 -137 2 -99 -56 -165 -145 -166
-59 0 -94 20 -132 76 -20 29 -23 44 -20 96 3 43 10 72 24 90 46 63 143 82 204
41z"/>
<path d="M2770 830 l0 -251 153 3 152 3 3 43 3 42 -100 0 -101 0 -2 203 -3
202 -52 3 -53 3 0 -251z"/>
<path d="M3150 830 l0 -250 50 0 50 0 0 250 0 250 -50 0 -50 0 0 -250z"/>
<path d="M3354 1067 c-2 -7 -3 -118 -2 -247 l3 -235 115 0 c106 0 120 3 172
28 103 50 154 158 129 270 -30 136 -131 197 -324 197 -62 0 -89 -4 -93 -13z
m233 -97 c57 -26 83 -69 83 -141 0 -99 -69 -163 -168 -157 l-47 3 -3 145 c-1
79 0 150 2 157 8 19 84 16 133 -7z"/>
<path d="M3964 1063 c-3 -10 -14 -42 -25 -70 -41 -114 -60 -165 -78 -215 -11
-29 -31 -86 -45 -126 l-26 -73 57 3 57 3 14 48 13 47 98 0 97 0 15 -47 15 -48
52 -3 c31 -2 52 1 52 7 0 10 -142 426 -160 469 -8 19 -17 22 -70 22 -49 0 -62
-3 -66 -17z m117 -295 c-9 -4 -37 -7 -63 -7 -37 -1 -48 3 -48 15 0 16 46 160
57 178 4 5 21 -33 38 -85 28 -83 30 -95 16 -101z"/>
<path d="M4340 830 l0 -250 150 0 150 0 0 45 0 45 -100 0 -100 0 0 205 0 205
-50 0 -50 0 0 -250z"/>
<path d="M1793 353 c19 -95 29 -123 46 -123 13 0 21 14 31 55 7 30 16 55 20
55 4 0 13 -24 21 -52 19 -70 40 -74 58 -11 7 26 17 60 21 76 7 20 6 27 -5 27
-8 0 -18 -21 -26 -55 -13 -60 -25 -70 -35 -27 -21 97 -40 102 -64 17 -18 -65
-22 -64 -40 13 -12 53 -37 75 -27 25z"/>
<path d="M2067 373 c-4 -3 -7 -37 -7 -75 l0 -68 53 2 c43 1 45 2 15 5 -34 4
-38 7 -38 34 0 26 3 29 30 29 17 0 30 5 30 10 0 6 -13 10 -30 10 -25 0 -30 4
-30 24 0 21 5 25 38 29 35 3 35 4 -9 5 -25 1 -49 -1 -52 -5z"/>
<path d="M2230 306 l0 -76 44 0 c51 0 71 18 60 52 -5 13 -8 39 -9 58 0 35 -1
35 -47 38 l-48 3 0 -75z m70 49 c15 -18 5 -35 -20 -35 -22 0 -34 15 -26 35 7
19 30 19 46 0z m-2 -64 c21 -13 10 -46 -16 -49 -24 -4 -38 18 -28 43 6 17 24
19 44 6z"/>
<path d="M2500 305 l0 -75 49 0 c58 0 81 22 81 77 0 48 -30 73 -85 73 l-45 0
0 -75z m85 40 c14 -13 25 -32 25 -43 0 -27 -38 -64 -63 -60 -19 3 -22 10 -25
57 -2 37 1 57 10 62 20 13 27 11 53 -16z"/>
<path d="M2690 305 l0 -75 53 2 c43 1 45 2 15 5 -34 4 -38 7 -38 34 0 26 3 29
30 29 17 0 30 5 30 10 0 6 -14 10 -31 10 -26 0 -30 3 -27 23 2 16 12 24 38 28
31 6 29 7 -17 8 l-53 1 0 -75z"/>
<path d="M2879 305 c34 -99 53 -99 88 -2 13 38 22 71 19 75 -10 10 -23 -10
-41 -66 -9 -30 -21 -50 -25 -45 -4 4 -15 32 -25 61 -9 28 -22 52 -29 52 -9 0
-5 -22 13 -75z"/>
<path d="M3060 305 l0 -75 48 2 c43 1 44 2 10 5 -34 4 -38 7 -38 34 0 27 3 29
35 29 19 0 35 5 35 10 0 6 -16 10 -35 10 -30 0 -35 3 -35 24 0 21 5 25 38 29
34 3 33 4 -10 5 l-48 2 0 -75z"/>
<path d="M3220 305 l0 -75 53 2 c43 1 45 2 15 5 l-38 4 0 70 c0 55 -3 69 -15
69 -12 0 -15 -15 -15 -75z"/>
<path d="M3387 362 c-9 -10 -20 -32 -23 -50 -5 -26 -1 -36 24 -62 19 -18 41
-30 57 -30 16 0 38 12 57 30 25 26 29 36 24 62 -3 18 -14 40 -23 50 -22 25
-94 25 -116 0z m76 -3 c14 -6 30 -23 37 -37 23 -52 -49 -104 -91 -66 -26 23
-24 68 3 94 26 24 21 23 51 9z"/>
<path d="M3590 305 c0 -60 3 -75 15 -75 10 0 15 10 15 30 0 26 4 30 28 30 33
0 52 16 52 45 0 32 -20 45 -67 45 l-43 0 0 -75z m79 48 c12 -23 -4 -53 -29
-53 -16 0 -20 7 -20 35 0 28 4 35 20 35 10 0 23 -8 29 -17z"/>
<path d="M3764 366 c-10 -26 1 -139 14 -144 9 -3 12 14 13 60 l0 63 27 -52
c14 -29 30 -53 35 -53 4 0 17 20 28 45 29 66 39 65 39 -4 0 -34 4 -61 10 -61
6 0 10 33 10 80 0 70 -2 80 -18 80 -12 0 -27 -18 -44 -52 l-25 -53 -27 53
c-25 50 -51 66 -62 38z"/>
<path d="M4010 305 l0 -75 53 1 c51 2 51 2 12 8 -34 5 -40 10 -40 31 0 21 5
26 33 28 41 4 42 22 2 22 -18 0 -33 6 -37 15 -7 21 0 27 44 35 37 7 36 8 -14
9 l-53 1 0 -75z"/>
<path d="M4180 305 c0 -43 4 -75 10 -75 6 0 10 23 10 50 0 28 4 50 8 50 5 0
24 -22 43 -50 48 -71 59 -66 59 25 0 43 -4 75 -10 75 -5 0 -10 -22 -10 -50 0
-27 -3 -50 -7 -50 -5 0 -24 23 -43 50 -49 70 -60 66 -60 -25z"/>
<path d="M4400 371 c23 -6 25 -12 28 -74 2 -37 7 -67 12 -67 5 0 10 30 12 67
3 62 5 68 28 74 16 5 1 7 -40 7 -41 0 -56 -2 -40 -7z"/>
</g>
</svg>
