<svg xmlns="http://www.w3.org/2000/svg" width="180" height="180" viewBox="0 0 180 180" version="1.1"><path d="M 0 1 C 0 2.382, 179.646 2.382, 180.500 1 C 180.910 0.336, 150.677 0, 90.559 0 C 30.853 0, 0 0.341, 0 1 M 138.460 47.587 C 133.818 49.847, 128.639 51.419, 123.253 52.204 C 114.274 53.513, 113.957 53.476, 88 48.045 C 70.568 44.398, 63.168 44.343, 56.376 47.808 C 42.536 54.869, 40.136 72.896, 52.210 79.095 C 57.285 81.701, 66.907 81.706, 70.119 79.105 C 72.145 77.464, 72.321 76.825, 71.429 74.355 C 70.350 71.364, 70.456 71.384, 62.330 72.617 C 58.720 73.165, 57.812 72.903, 55.580 70.670 C 52.395 67.486, 52.309 64.322, 55.287 59.898 C 60.237 52.546, 68.624 51.807, 90.335 56.811 C 97.944 58.565, 104.356 60, 104.585 60 C 105.824 60, 104.284 65.013, 97.486 83.102 C 86.360 112.710, 83.578 119.299, 80.021 124.469 C 76.032 130.268, 71.709 132.993, 66.500 132.993 C 56.081 132.993, 49.904 122.326, 54.596 112.438 C 56.473 108.484, 59.305 107.290, 62.611 109.059 C 65.314 110.506, 70 109.038, 70 106.744 C 70 104.142, 66.837 101.031, 63.031 99.891 C 59.562 98.852, 58.606 98.986, 54.338 101.112 C 41.265 107.623, 40.887 130.899, 53.722 139.039 C 65.242 146.345, 78.578 142.713, 87.145 129.936 C 90.837 124.430, 99.496 103.498, 109.070 76.932 L 114.321 62.364 123.410 61.219 C 130.590 60.314, 134.234 59.215, 140.750 55.988 C 149.335 51.737, 150.329 50.352, 147.965 45.934 C 146.670 43.515, 146.907 43.474, 138.460 47.587" stroke="none" fill="#f4f4f4" fill-rule="evenodd"/><path d="M 0 91.016 L 0 180.011 90.250 179.755 L 180.500 179.500 180.755 90.500 L 181.011 1.500 90.505 1.760 L 0 2.021 0 91.016 M 0.479 91 C 0.479 140.225, 0.601 160.362, 0.750 135.750 C 0.899 111.137, 0.899 70.862, 0.750 46.250 C 0.601 21.637, 0.479 41.775, 0.479 91 M 138.460 47.587 C 133.818 49.847, 128.639 51.419, 123.253 52.204 C 114.274 53.513, 113.957 53.476, 88 48.045 C 70.568 44.398, 63.168 44.343, 56.376 47.808 C 42.536 54.869, 40.136 72.896, 52.210 79.095 C 57.285 81.701, 66.907 81.706, 70.119 79.105 C 72.145 77.464, 72.321 76.825, 71.429 74.355 C 70.350 71.364, 70.456 71.384, 62.330 72.617 C 58.720 73.165, 57.812 72.903, 55.580 70.670 C 52.395 67.486, 52.309 64.322, 55.287 59.898 C 60.237 52.546, 68.624 51.807, 90.335 56.811 C 97.944 58.565, 104.356 60, 104.585 60 C 105.824 60, 104.284 65.013, 97.486 83.102 C 86.360 112.710, 83.578 119.299, 80.021 124.469 C 76.032 130.268, 71.709 132.993, 66.500 132.993 C 56.081 132.993, 49.904 122.326, 54.596 112.438 C 56.473 108.484, 59.305 107.290, 62.611 109.059 C 65.314 110.506, 70 109.038, 70 106.744 C 70 104.142, 66.837 101.031, 63.031 99.891 C 59.562 98.852, 58.606 98.986, 54.338 101.112 C 41.265 107.623, 40.887 130.899, 53.722 139.039 C 65.242 146.345, 78.578 142.713, 87.145 129.936 C 90.837 124.430, 99.496 103.498, 109.070 76.932 L 114.321 62.364 123.410 61.219 C 130.590 60.314, 134.234 59.215, 140.750 55.988 C 149.335 51.737, 150.329 50.352, 147.965 45.934 C 146.670 43.515, 146.907 43.474, 138.460 47.587" stroke="none" fill="#040404" fill-rule="evenodd"/></svg>