<svg xmlns="http://www.w3.org/2000/svg" width="120" height="150" viewBox="0 0 120 150" version="1.1"><path d="M 53.306 3.640 C 53.910 4.243, 59.763 4.402, 96.782 4.825 C 111.619 4.995, 112.091 5.066, 112.969 7.250 L 113.873 9.500 113.937 7.285 C 113.971 6.067, 113.130 4.605, 112.066 4.035 C 109.966 2.911, 52.189 2.522, 53.306 3.640 M 114.145 11.500 C 113.978 12.600, 113.858 19.972, 113.878 27.883 C 113.918 43.903, 113.005 47.280, 108.316 48.457 C 106.801 48.837, 96.098 49.178, 84.531 49.214 L 63.500 49.280 84.685 50.226 C 107.735 51.255, 109.475 50.996, 113.185 45.978 C 114.864 43.707, 115.020 41.762, 114.749 26.478 C 114.584 17.140, 114.312 10.400, 114.145 11.500 M 3 34 C 3 34.733, 3.300 35.033, 3.667 34.667 C 4.033 34.300, 4.033 33.700, 3.667 33.333 C 3.300 32.967, 3 33.267, 3 34 M 3 37 C 3 37.733, 3.300 38.033, 3.667 37.667 C 4.033 37.300, 4.033 36.700, 3.667 36.333 C 3.300 35.967, 3 36.267, 3 37 M 3.272 43 C 3.272 45.475, 3.467 46.487, 3.706 45.250 C 3.944 44.013, 3.944 41.987, 3.706 40.750 C 3.467 39.513, 3.272 40.525, 3.272 43 M 53.507 48.989 C 53.157 49.555, 53.558 49.723, 54.448 49.382 C 56.180 48.717, 56.497 48, 55.059 48 C 54.541 48, 53.843 48.445, 53.507 48.989 M 3.070 66.282 C 3.032 68.362, 3.616 71.540, 4.370 73.343 C 6.110 77.506, 13.296 83.700, 17.935 85.032 C 23.539 86.643, 48.555 87.529, 49.409 86.147 C 49.924 85.314, 47.025 84.952, 38.809 84.826 C 19.195 84.524, 18.104 84.353, 12.284 80.680 C 7.418 77.608, 5.021 74.057, 4.930 69.785 C 4.891 67.978, 4.473 65.600, 4 64.500 C 3.312 62.900, 3.127 63.256, 3.070 66.282 M 62.974 65.540 C 61.825 66.930, 61.479 70.762, 61.403 82.912 C 61.285 101.646, 61.351 101, 59.559 101 C 58.766 101, 57.840 101.450, 57.500 102 C 56.397 103.784, 58.943 103.057, 61 101 C 62.829 99.171, 63.001 97.655, 63.015 83.250 C 63.024 74.588, 63.415 66.894, 63.884 66.153 C 64.561 65.085, 67.704 64.917, 79.119 65.343 C 87.028 65.637, 95.300 66.152, 97.500 66.487 C 100.957 67.013, 101.228 66.927, 99.500 65.857 C 98.207 65.056, 91.660 64.466, 80.974 64.187 C 66.018 63.797, 64.307 63.925, 62.974 65.540 M 105.780 70.518 C 113.172 76.904, 113.467 78.007, 113.485 99.249 C 113.493 109.561, 113.838 117.999, 114.250 117.999 C 115.430 118, 115.114 84.951, 113.892 80.549 C 112.496 75.520, 109.052 71.008, 104.818 68.660 C 101.814 66.994, 101.905 67.169, 105.780 70.518 M 9.378 101.437 C 4.822 103.420, 2.990 106.622, 3.063 112.473 C 3.117 116.754, 3.271 117.140, 4.096 115.074 C 4.630 113.739, 4.999 111.939, 4.918 111.074 C 4.427 105.854, 5.018 104.900, 10.250 102.464 C 15.681 99.935, 14.911 99.029, 9.378 101.437 M 21.750 100.740 C 25.188 100.936, 30.813 100.936, 34.250 100.740 C 37.688 100.545, 34.875 100.385, 28 100.385 C 21.125 100.385, 18.313 100.545, 21.750 100.740 M 62.333 117.667 C 62.700 118.033, 63.300 118.033, 63.667 117.667 C 64.033 117.300, 63.733 117, 63 117 C 62.267 117, 61.967 117.300, 62.333 117.667 M 2 134.899 C 2 149.188, -0.768 148, 32.535 148 L 61 148 60.985 143.750 C 60.974 140.696, 60.704 139.920, 60.026 140.992 C 59.508 141.812, 59.310 143.387, 59.587 144.492 C 60.083 146.468, 59.636 146.501, 32.621 146.492 C 17.512 146.488, 4.804 146.138, 4.382 145.715 C 3.959 145.292, 3.480 140.839, 3.318 135.818 C 2.929 123.789, 2 123.142, 2 134.899" stroke="none" fill="#b9211d" fill-rule="evenodd"/><path d="M 53 18.551 L 53 33 28.607 33 C 9.950 33, 4.130 33.294, 3.857 34.250 C 3.161 36.687, 3.637 63.576, 4.463 68.500 C 5.511 74.748, 7.300 77.533, 12.284 80.680 C 17.527 83.989, 18.232 84.113, 35.271 84.700 C 46.117 85.074, 50.435 84.884, 51.521 83.982 C 52.719 82.988, 53 79.560, 53 65.937 C 53 56.686, 53.337 48.979, 53.750 48.809 C 54.163 48.639, 66.060 48.725, 80.188 49 C 108.301 49.547, 110.876 49.177, 112.846 44.306 C 114.261 40.809, 113.959 7.543, 112.500 6.130 C 111.928 5.575, 98.988 4.934, 82.250 4.632 L 53 4.103 53 18.551 M 63.641 66.493 C 63.288 67.412, 63 75.102, 63 83.582 C 63 97.667, 62.827 99.173, 61 101 C 58.966 103.034, 56.392 103.792, 57.476 102.038 C 57.848 101.437, 49.907 100.968, 36.287 100.788 C 15.610 100.515, 14.262 100.612, 9.752 102.704 C 6.760 104.092, 4.971 105.573, 4.923 106.704 C 4.881 107.692, 4.621 110.075, 4.347 112 C 3.298 119.349, 3.365 145.107, 4.434 145.785 C 5.020 146.156, 17.736 146.469, 32.690 146.481 L 59.880 146.501 59.981 144.001 C 60.036 142.625, 60.400 136.175, 60.791 129.667 L 61.500 117.834 87.500 117.667 L 113.500 117.500 113.476 99 C 113.448 77.986, 113.080 76.633, 105.766 70.698 C 100.659 66.554, 98.063 66.037, 78.891 65.347 C 65.866 64.879, 64.213 65.003, 63.641 66.493" stroke="none" fill="#df1c1b" fill-rule="evenodd"/></svg>